<mxfile host="app.diagrams.net" modified="2021-02-28T07:23:25.402Z" agent="5.0 (X11; Linux x86_64) AppleWebKit/537.36 (KHTML, like Gecko) Chrome/88.0.4324.182 Safari/537.36" etag="ov6CMUP2nOzmrFc0xbIh" version="14.4.3" type="github">
  <diagram id="had0wTkto7i6EAFIIaJy" name="Page-1">
    <mxGraphModel dx="534" dy="946" grid="1" gridSize="10" guides="1" tooltips="1" connect="1" arrows="1" fold="1" page="1" pageScale="1" pageWidth="827" pageHeight="1169" math="0" shadow="0">
      <root>
        <mxCell id="0" />
        <mxCell id="1" parent="0" />
        <mxCell id="9OdN9ilCwOC1JNWbvBjM-1" value="Admin" style="shape=umlActor;verticalLabelPosition=bottom;verticalAlign=top;html=1;" vertex="1" parent="1">
          <mxGeometry x="120" y="260" width="25" height="50" as="geometry" />
        </mxCell>
        <mxCell id="9OdN9ilCwOC1JNWbvBjM-4" value="Pegawai" style="shape=umlActor;verticalLabelPosition=bottom;verticalAlign=top;html=1;" vertex="1" parent="1">
          <mxGeometry x="550" y="260" width="25" height="50" as="geometry" />
        </mxCell>
        <mxCell id="9OdN9ilCwOC1JNWbvBjM-8" value="login" style="ellipse;whiteSpace=wrap;html=1;verticalAlign=top;flipV=1;flipH=1;" vertex="1" parent="1">
          <mxGeometry x="322.5" y="100" width="70" height="30" as="geometry" />
        </mxCell>
        <mxCell id="9OdN9ilCwOC1JNWbvBjM-11" value="mengelola user" style="ellipse;whiteSpace=wrap;html=1;verticalAlign=top;flipV=1;flipH=1;" vertex="1" parent="1">
          <mxGeometry x="315" y="150" width="85" height="35" as="geometry" />
        </mxCell>
        <mxCell id="9OdN9ilCwOC1JNWbvBjM-12" value="mengelola data surat" style="ellipse;whiteSpace=wrap;html=1;verticalAlign=top;flipV=1;flipH=1;" vertex="1" parent="1">
          <mxGeometry x="312.5" y="340" width="90" height="40" as="geometry" />
        </mxCell>
        <mxCell id="9OdN9ilCwOC1JNWbvBjM-13" value="mengelola role akses" style="ellipse;whiteSpace=wrap;html=1;verticalAlign=top;flipV=1;flipH=1;" vertex="1" parent="1">
          <mxGeometry x="320.31" y="390" width="74.38" height="35" as="geometry" />
        </mxCell>
        <mxCell id="9OdN9ilCwOC1JNWbvBjM-14" value="mengelola aktifasi user" style="ellipse;whiteSpace=wrap;html=1;verticalAlign=top;flipV=1;flipH=1;" vertex="1" parent="1">
          <mxGeometry x="312.5" y="200" width="90" height="40" as="geometry" />
        </mxCell>
        <mxCell id="9OdN9ilCwOC1JNWbvBjM-15" value="mengelola antrian surat" style="ellipse;whiteSpace=wrap;html=1;verticalAlign=top;flipV=1;flipH=1;" vertex="1" parent="1">
          <mxGeometry x="312.5" y="290" width="90" height="40" as="geometry" />
        </mxCell>
        <mxCell id="9OdN9ilCwOC1JNWbvBjM-16" value="mengelola menu" style="ellipse;whiteSpace=wrap;html=1;verticalAlign=top;flipV=1;flipH=1;" vertex="1" parent="1">
          <mxGeometry x="312.5" y="245" width="90" height="40" as="geometry" />
        </mxCell>
        <mxCell id="9OdN9ilCwOC1JNWbvBjM-17" value="input persyaratan surat" style="ellipse;whiteSpace=wrap;html=1;verticalAlign=top;flipV=1;flipH=1;" vertex="1" parent="1">
          <mxGeometry x="302.5" y="540" width="110" height="40" as="geometry" />
        </mxCell>
        <mxCell id="9OdN9ilCwOC1JNWbvBjM-18" value="warga" style="shape=umlActor;verticalLabelPosition=bottom;verticalAlign=top;html=1;" vertex="1" parent="1">
          <mxGeometry x="130" y="440" width="25" height="50" as="geometry" />
        </mxCell>
        <mxCell id="9OdN9ilCwOC1JNWbvBjM-19" value="cek status surat" style="ellipse;whiteSpace=wrap;html=1;verticalAlign=top;flipV=1;flipH=1;" vertex="1" parent="1">
          <mxGeometry x="312.5" y="600" width="90" height="40" as="geometry" />
        </mxCell>
        <mxCell id="9OdN9ilCwOC1JNWbvBjM-34" value="" style="endArrow=none;html=1;entryX=0;entryY=0.5;entryDx=0;entryDy=0;" edge="1" parent="1" source="9OdN9ilCwOC1JNWbvBjM-1" target="9OdN9ilCwOC1JNWbvBjM-8">
          <mxGeometry width="50" height="50" relative="1" as="geometry">
            <mxPoint x="170" y="180" as="sourcePoint" />
            <mxPoint x="360" y="140" as="targetPoint" />
          </mxGeometry>
        </mxCell>
        <mxCell id="9OdN9ilCwOC1JNWbvBjM-35" value="" style="endArrow=none;html=1;entryX=0;entryY=0.5;entryDx=0;entryDy=0;" edge="1" parent="1" source="9OdN9ilCwOC1JNWbvBjM-1" target="9OdN9ilCwOC1JNWbvBjM-11">
          <mxGeometry width="50" height="50" relative="1" as="geometry">
            <mxPoint x="175" y="199.02985074626866" as="sourcePoint" />
            <mxPoint x="330" y="125" as="targetPoint" />
          </mxGeometry>
        </mxCell>
        <mxCell id="9OdN9ilCwOC1JNWbvBjM-36" value="" style="endArrow=none;html=1;entryX=0.987;entryY=0.6;entryDx=0;entryDy=0;entryPerimeter=0;" edge="1" parent="1" source="9OdN9ilCwOC1JNWbvBjM-1" target="9OdN9ilCwOC1JNWbvBjM-15">
          <mxGeometry width="50" height="50" relative="1" as="geometry">
            <mxPoint x="170" y="200" as="sourcePoint" />
            <mxPoint x="322.5000000000001" y="177.5" as="targetPoint" />
          </mxGeometry>
        </mxCell>
        <mxCell id="9OdN9ilCwOC1JNWbvBjM-37" value="" style="endArrow=none;html=1;entryX=0;entryY=0.5;entryDx=0;entryDy=0;" edge="1" parent="1" source="9OdN9ilCwOC1JNWbvBjM-1" target="9OdN9ilCwOC1JNWbvBjM-13">
          <mxGeometry width="50" height="50" relative="1" as="geometry">
            <mxPoint x="160" y="290" as="sourcePoint" />
            <mxPoint x="332.5000000000001" y="187.5" as="targetPoint" />
          </mxGeometry>
        </mxCell>
        <mxCell id="9OdN9ilCwOC1JNWbvBjM-38" value="" style="endArrow=none;html=1;entryX=0;entryY=0.5;entryDx=0;entryDy=0;" edge="1" parent="1" source="9OdN9ilCwOC1JNWbvBjM-1" target="9OdN9ilCwOC1JNWbvBjM-16">
          <mxGeometry width="50" height="50" relative="1" as="geometry">
            <mxPoint x="170" y="210" as="sourcePoint" />
            <mxPoint x="332.5000000000001" y="187.5" as="targetPoint" />
          </mxGeometry>
        </mxCell>
        <mxCell id="9OdN9ilCwOC1JNWbvBjM-39" value="" style="endArrow=none;html=1;entryX=0;entryY=0.5;entryDx=0;entryDy=0;" edge="1" parent="1" source="9OdN9ilCwOC1JNWbvBjM-1" target="9OdN9ilCwOC1JNWbvBjM-14">
          <mxGeometry width="50" height="50" relative="1" as="geometry">
            <mxPoint x="160" y="270" as="sourcePoint" />
            <mxPoint x="320" y="300" as="targetPoint" />
          </mxGeometry>
        </mxCell>
        <mxCell id="9OdN9ilCwOC1JNWbvBjM-40" value="" style="endArrow=none;html=1;entryX=0;entryY=0.5;entryDx=0;entryDy=0;" edge="1" parent="1" source="9OdN9ilCwOC1JNWbvBjM-1" target="9OdN9ilCwOC1JNWbvBjM-12">
          <mxGeometry width="50" height="50" relative="1" as="geometry">
            <mxPoint x="160" y="280" as="sourcePoint" />
            <mxPoint x="320" y="340" as="targetPoint" />
          </mxGeometry>
        </mxCell>
        <mxCell id="9OdN9ilCwOC1JNWbvBjM-41" value="" style="endArrow=none;html=1;exitX=1;exitY=0.5;exitDx=0;exitDy=0;" edge="1" parent="1" source="9OdN9ilCwOC1JNWbvBjM-8" target="9OdN9ilCwOC1JNWbvBjM-4">
          <mxGeometry width="50" height="50" relative="1" as="geometry">
            <mxPoint x="380" y="290.3308823529412" as="sourcePoint" />
            <mxPoint x="537.5" y="200" as="targetPoint" />
          </mxGeometry>
        </mxCell>
        <mxCell id="9OdN9ilCwOC1JNWbvBjM-42" value="" style="endArrow=none;html=1;exitX=1;exitY=0.5;exitDx=0;exitDy=0;" edge="1" parent="1" source="9OdN9ilCwOC1JNWbvBjM-15" target="9OdN9ilCwOC1JNWbvBjM-4">
          <mxGeometry width="50" height="50" relative="1" as="geometry">
            <mxPoint x="400" y="125" as="sourcePoint" />
            <mxPoint x="550" y="263.46153846153857" as="targetPoint" />
          </mxGeometry>
        </mxCell>
        <mxCell id="9OdN9ilCwOC1JNWbvBjM-43" value="" style="endArrow=none;html=1;exitX=1;exitY=0.5;exitDx=0;exitDy=0;" edge="1" parent="1" source="9OdN9ilCwOC1JNWbvBjM-12" target="9OdN9ilCwOC1JNWbvBjM-4">
          <mxGeometry width="50" height="50" relative="1" as="geometry">
            <mxPoint x="410" y="240" as="sourcePoint" />
            <mxPoint x="540" y="272" as="targetPoint" />
          </mxGeometry>
        </mxCell>
        <mxCell id="9OdN9ilCwOC1JNWbvBjM-44" value="" style="endArrow=none;html=1;entryX=0;entryY=0.5;entryDx=0;entryDy=0;" edge="1" parent="1" source="9OdN9ilCwOC1JNWbvBjM-18" target="9OdN9ilCwOC1JNWbvBjM-17">
          <mxGeometry width="50" height="50" relative="1" as="geometry">
            <mxPoint x="165" y="285.2891058225507" as="sourcePoint" />
            <mxPoint x="325.620000000001" y="417.5" as="targetPoint" />
          </mxGeometry>
        </mxCell>
        <mxCell id="9OdN9ilCwOC1JNWbvBjM-45" value="" style="endArrow=none;html=1;entryX=0;entryY=0.5;entryDx=0;entryDy=0;" edge="1" parent="1" source="9OdN9ilCwOC1JNWbvBjM-18" target="9OdN9ilCwOC1JNWbvBjM-19">
          <mxGeometry width="50" height="50" relative="1" as="geometry">
            <mxPoint x="165" y="476.19047619047615" as="sourcePoint" />
            <mxPoint x="310" y="490" as="targetPoint" />
          </mxGeometry>
        </mxCell>
        <mxCell id="9OdN9ilCwOC1JNWbvBjM-46" value="mengelola galery&lt;span style=&quot;color: rgba(0 , 0 , 0 , 0) ; font-family: monospace ; font-size: 0px&quot;&gt;%3CmxGraphModel%3E%3Croot%3E%3CmxCell%20id%3D%220%22%2F%3E%3CmxCell%20id%3D%221%22%20parent%3D%220%22%2F%3E%3CmxCell%20id%3D%222%22%20value%3D%22mengelola%20data%20surat%22%20style%3D%22ellipse%3BwhiteSpace%3Dwrap%3Bhtml%3D1%3BverticalAlign%3Dtop%3BflipV%3D1%3BflipH%3D1%3B%22%20vertex%3D%221%22%20parent%3D%221%22%3E%3CmxGeometry%20x%3D%22310%22%20y%3D%22340%22%20width%3D%2290%22%20height%3D%2240%22%20as%3D%22geometry%22%2F%3E%3C%2FmxCell%3E%3CmxCell%20id%3D%223%22%20value%3D%22%22%20style%3D%22endArrow%3Dnone%3Bhtml%3D1%3BentryX%3D0%3BentryY%3D0.5%3BentryDx%3D0%3BentryDy%3D0%3B%22%20edge%3D%221%22%20target%3D%222%22%20parent%3D%221%22%3E%3CmxGeometry%20width%3D%2250%22%20height%3D%2250%22%20relative%3D%221%22%20as%3D%22geometry%22%3E%3CmxPoint%20x%3D%22155%22%20y%3D%22272.08955223880594%22%20as%3D%22sourcePoint%22%2F%3E%3CmxPoint%20x%3D%22320%22%20y%3D%22340%22%20as%3D%22targetPoint%22%2F%3E%3C%2FmxGeometry%3E%3C%2FmxCell%3E%3CmxCell%20id%3D%224%22%20value%3D%22%22%20style%3D%22endArrow%3Dnone%3Bhtml%3D1%3BexitX%3D1%3BexitY%3D0.5%3BexitDx%3D0%3BexitDy%3D0%3B%22%20edge%3D%221%22%20source%3D%222%22%20parent%3D%221%22%3E%3CmxGeometry%20width%3D%2250%22%20height%3D%2250%22%20relative%3D%221%22%20as%3D%22geometry%22%3E%3CmxPoint%20x%3D%22410%22%20y%3D%22240%22%20as%3D%22sourcePoint%22%2F%3E%3CmxPoint%20x%3D%22540%22%20y%3D%22272.78688524590166%22%20as%3D%22targetPoint%22%2F%3E%3C%2FmxGeometry%3E%3C%2FmxCell%3E%3C%2Froot%3E%3C%2FmxGraphModel%3E&lt;/span&gt;" style="ellipse;whiteSpace=wrap;html=1;verticalAlign=top;flipV=1;flipH=1;" vertex="1" parent="1">
          <mxGeometry x="312.5" y="427.90999999999997" width="90" height="40" as="geometry" />
        </mxCell>
        <mxCell id="9OdN9ilCwOC1JNWbvBjM-47" value="" style="endArrow=none;html=1;entryX=0;entryY=0.5;entryDx=0;entryDy=0;" edge="1" parent="1" target="9OdN9ilCwOC1JNWbvBjM-46" source="9OdN9ilCwOC1JNWbvBjM-1">
          <mxGeometry width="50" height="50" relative="1" as="geometry">
            <mxPoint x="150" y="359.9995522388059" as="sourcePoint" />
            <mxPoint x="315" y="427.90999999999997" as="targetPoint" />
          </mxGeometry>
        </mxCell>
        <mxCell id="9OdN9ilCwOC1JNWbvBjM-48" value="" style="endArrow=none;html=1;exitX=1;exitY=0.5;exitDx=0;exitDy=0;" edge="1" parent="1" source="9OdN9ilCwOC1JNWbvBjM-46" target="9OdN9ilCwOC1JNWbvBjM-4">
          <mxGeometry width="50" height="50" relative="1" as="geometry">
            <mxPoint x="405" y="327.90999999999997" as="sourcePoint" />
            <mxPoint x="535" y="360.6968852459016" as="targetPoint" />
          </mxGeometry>
        </mxCell>
        <mxCell id="9OdN9ilCwOC1JNWbvBjM-49" value="mengelola data penduduk" style="ellipse;whiteSpace=wrap;html=1;verticalAlign=top;flipV=1;flipH=1;" vertex="1" parent="1">
          <mxGeometry x="312.5" y="467.90999999999997" width="90" height="40" as="geometry" />
        </mxCell>
        <mxCell id="9OdN9ilCwOC1JNWbvBjM-50" value="" style="endArrow=none;html=1;entryX=0;entryY=0.5;entryDx=0;entryDy=0;" edge="1" parent="1" target="9OdN9ilCwOC1JNWbvBjM-49" source="9OdN9ilCwOC1JNWbvBjM-1">
          <mxGeometry width="50" height="50" relative="1" as="geometry">
            <mxPoint x="157.5" y="399.9995522388059" as="sourcePoint" />
            <mxPoint x="322.5" y="467.90999999999997" as="targetPoint" />
          </mxGeometry>
        </mxCell>
        <mxCell id="9OdN9ilCwOC1JNWbvBjM-51" value="" style="endArrow=none;html=1;exitX=1;exitY=0.5;exitDx=0;exitDy=0;" edge="1" parent="1" source="9OdN9ilCwOC1JNWbvBjM-49" target="9OdN9ilCwOC1JNWbvBjM-4">
          <mxGeometry width="50" height="50" relative="1" as="geometry">
            <mxPoint x="412.5" y="367.90999999999997" as="sourcePoint" />
            <mxPoint x="542.5" y="400.6968852459016" as="targetPoint" />
          </mxGeometry>
        </mxCell>
      </root>
    </mxGraphModel>
  </diagram>
</mxfile>
